<?xml version="1.0" encoding="UTF-8" standalone="no"?>
<svg width="30px" height="30px" viewBox="0 0 30 30" version="1.1" xmlns="http://www.w3.org/2000/svg" xmlns:xlink="http://www.w3.org/1999/xlink">
    <!-- Generator: Sketch 3.8.3 (29802) - http://www.bohemiancoding.com/sketch -->
    <title>Group</title>
    <desc>Created with Sketch.</desc>
    <defs></defs>
    <g id="Page-1" stroke="none" stroke-width="1" fill="none" fill-rule="evenodd">
        <g id="Group" fill="#FFFFFF">
            <path d="M3.93327089,1.0060714 C2.59184236,-0.335357132 1.74462434,-0.335357132 0.403195815,1.0060714 L1.01507549,0.394191716 C-0.326353033,1.73562024 -0.326353033,2.58283826 0.944473993,3.85366529 L12.3819172,15.079304 L1.085677,26.2343412 C-0.185150031,27.5051683 -0.185150031,28.3523863 1.1562785,29.6938148 L0.332594313,28.8701306 C1.67402284,30.2115592 2.52124086,30.2115592 3.79206788,28.9407321 L16.100263,16.5619355 C17.37109,15.2911085 17.37109,14.4438905 16.0296615,13.102462 L3.93327089,1.0060714 Z" id="&gt;-copy-2"></path>
            <path d="M16.5648498,1.0060714 C15.2234213,-0.335357132 14.3762033,-0.335357132 13.0347748,1.0060714 L13.6466544,0.394191716 C12.3052259,1.73562024 12.3052259,2.58283826 13.5760529,3.85366529 L25.0134962,15.079304 L13.7172559,26.2343412 C12.4464289,27.5051683 12.4464289,28.3523863 13.7878574,29.6938148 L12.9641733,28.8701306 C14.3056018,30.2115592 15.1528198,30.2115592 16.4236468,28.9407321 L28.7318419,16.5619355 C30.0026689,15.2911085 30.0026689,14.4438905 28.6612404,13.102462 L16.5648498,1.0060714 Z" id="&gt;-copy-3" transform="translate(21.153947, 14.942603) scale(-1, 1) translate(-21.153947, -14.942603) "></path>
        </g>
    </g>
</svg>