<?xml version="1.0" encoding="UTF-8" standalone="no"?>
<svg width="45px" height="37px" viewBox="0 0 45 37" version="1.1" xmlns="http://www.w3.org/2000/svg" xmlns:xlink="http://www.w3.org/1999/xlink">
    <!-- Generator: Sketch 3.8.3 (29802) - http://www.bohemiancoding.com/sketch -->
    <title>Group 2</title>
    <desc>Created with Sketch.</desc>
    <defs></defs>
    <g id="Page-1" stroke="none" stroke-width="1" fill="none" fill-rule="evenodd">
        <g id="Group-2" fill="#FFFFFF">
            <path d="M31.2279221,31.2279221 C27.9705627,34.4852814 23.4705627,36.5 18.5,36.5 C8.5588745,36.5 0.5,28.4411255 0.5,18.5 C0.5,8.5588745 8.5588745,0.5 18.5,0.5 C28.2739165,0.5 36.2283682,8.29005513 36.4931896,18 L32.4912379,18 C32.2279555,10.4995919 26.0646176,4.5 18.5,4.5 C10.7680135,4.5 4.5,10.7680135 4.5,18.5 C4.5,26.2319865 10.7680135,32.5 18.5,32.5 C22.3659932,32.5 25.8659932,30.9329966 28.3994949,28.3994949 L31.2279221,31.2279221 Z" id="Combined-Shape"></path>
            <path d="M29.8999939,31.7999878 C31.0045634,31.7999878 31.8999939,30.9045573 31.8999939,29.7999878 C31.8999939,28.6954183 31.0045634,27.7999878 29.8999939,27.7999878 C28.7954244,27.7999878 27.8999939,28.6954183 27.8999939,29.7999878 C27.8999939,30.9045573 28.7954244,31.7999878 29.8999939,31.7999878 Z" id="Oval-1"></path>
            <path d="M29.8655342,3.3479016 C28.795451,2.27781842 28.119609,2.27781842 27.0495259,3.3479016 L27.537634,2.85979348 C26.4675508,3.92987666 26.4675508,4.60571866 27.4813138,5.61948167 L36.6051809,14.5743883 L27.5939541,23.4729747 C26.5801911,24.4867377 26.5801911,25.1625797 27.6502743,26.2326629 L26.9932057,25.5755942 C28.0632889,26.6456774 28.7391309,26.6456774 29.7528939,25.6319144 L39.5713764,15.7571118 C40.5851394,14.7433488 40.5851394,14.0675067 39.5150562,12.9974236 L29.8655342,3.3479016 Z" id="&gt;-copy-4" transform="translate(33.526345, 14.465339) scale(-1, 1) rotate(101.000000) translate(-33.526345, -14.465339) "></path>
        </g>
    </g>
</svg>